<?xml version="1.0" encoding="utf-8"?>
<!-- Generator: Adobe Illustrator 19.0.0, SVG Export Plug-In . SVG Version: 6.00 Build 0)  -->
<svg version="1.1" id="Layer_1" xmlns="http://www.w3.org/2000/svg" xmlns:xlink="http://www.w3.org/1999/xlink" x="0px" y="0px"
	 viewBox="-254.9 334 99.9 99.9" style="enable-background:new -254.9 334 99.9 99.9;" xml:space="preserve">
<path d="M-171.6,388.2c-0.8,6.2-3.2,11.8-6.9,16.4l11.8,11.8c6.6-7.7,10.8-17.5,11.7-28.2L-171.6,388.2L-171.6,388.2z"/>
<path d="M-200.8,417.2v16.8c10.7-0.9,20.5-5.1,28.2-11.7l-11.8-11.8C-189.1,414.1-194.7,416.5-200.8,417.2z"/>
<path d="M-225.4,410.3l-12,12c7.7,6.6,17.5,10.8,28.2,11.7v-16.8C-215.2,416.3-220.8,413.9-225.4,410.3z"/>
<path d="M-237.9,388.2h-17c0.9,10.7,5.1,20.5,11.7,28.2l12-12C-234.8,399.8-237.2,394.2-237.9,388.2z"/>
<path d="M-231.3,363.6l-12-12c-6.6,7.7-10.8,17.5-11.7,28.2h17C-237.2,373.8-234.8,368.2-231.3,363.6z"/>
<path d="M-209.2,350.9V334c-10.7,0.9-20.5,5.1-28.2,11.7l12,12C-220.8,354.1-215.2,351.7-209.2,350.9z"/>
<path d="M-169.3,370.2l-3.7-3.7l14.6-14.7c4-4,4-10.6,0-14.7c-4-4-10.6-4-14.6,0l-14.7,14.7l-3.7-3.7c-2-2-5.3-2-7.3,0l0,0
	c-2,2-2,5.3,0,7.3l3.7,3.7l-18.3,18.3c-2,2-3.7,6-3.8,8.8l-0.1,2.4l0.9,6.4l6.4,0.9l2.4-0.1c2.9-0.1,6.8-1.8,8.8-3.8l18.3-18.3
	l3.7,3.7c2,2,5.3,2,7.3,0l0,0C-167.2,375.5-167.2,372.2-169.3,370.2z M-202.2,388.5c-1.1,1.1-3.8,2.2-5.3,2.3l-0.2,0l-4.1-4.1l0-0.2
	c0-1.5,1.2-4.2,2.3-5.3l18.3-18.3l7.3,7.3L-202.2,388.5z"/>
</svg>
