<?xml version="1.0" encoding="utf-8"?>
<!-- Generator: Adobe Illustrator 19.0.0, SVG Export Plug-In . SVG Version: 6.00 Build 0)  -->
<svg version="1.1" id="Layer_1" xmlns="http://www.w3.org/2000/svg" xmlns:xlink="http://www.w3.org/1999/xlink" x="0px" y="0px"
	 viewBox="-278.6 380.5 27.1 23" style="enable-background:new -278.6 380.5 27.1 23;" xml:space="preserve">
<path d="M-258,401.6c-0.3,0-0.6-0.1-0.8-0.3c-0.2-0.1-0.3-0.3-0.4-0.5l-7-20.2l-3.2,1.4v1.3l-4,11.5c-0.5,1.5-1,2.8-1.3,3.7
	c-0.4,0.9-0.7,1.6-1,2.1c-0.3,0.5-0.6,0.8-0.8,1c-0.3,0.2-0.6,0.3-1,0.4l-1,0.3l-0.1,1.2l7.4-0.1l-0.1-1.2l-1.4-0.3
	c-0.3,0-0.5-0.1-0.6-0.3c-0.1-0.1-0.2-0.3-0.2-0.6s0.1-0.7,0.2-1.1c0.1-0.5,0.3-1,0.5-1.7l0.8-2.7l7.3-0.1l0.9,2.7
	c0.2,0.7,0.4,1.3,0.6,1.8c0.1,0.4,0.2,0.8,0.2,1.1s-0.1,0.5-0.2,0.6c-0.2,0.1-0.4,0.2-0.7,0.3l-1.7,0.3l-0.1,1.2l9.7-0.1l-0.1-1.3
	L-258,401.6z M-271.4,394l3.1-9.5h0.2l3.1,9.5H-271.4z M-254.9,389.8l-0.8,0.1v0.5l4.2-0.1l-0.1-0.5l-0.8-0.2
	c-0.1,0-0.3-0.1-0.3-0.1c-0.1-0.1-0.1-0.1-0.2-0.2l-3.1-8.8l-1.4,0.7v0.6l-1.7,5c-0.2,0.7-0.4,1.2-0.6,1.6c-0.2,0.4-0.3,0.7-0.4,0.9
	c-0.1,0.2-0.2,0.4-0.4,0.4c-0.1,0.1-0.3,0.1-0.4,0.2l-0.4,0.1v0.5h3.3l-0.2-0.5l-0.6-0.1c-0.1,0-0.2-0.1-0.3-0.1
	c-0.1-0.1-0.1-0.2-0.1-0.3s0-0.3,0.1-0.5s0.1-0.4,0.2-0.7l0.4-1.2h3.2l0.4,1.2c0.1,0.3,0.2,0.6,0.3,0.8c0.1,0.2,0.1,0.4,0.1,0.5
	s0,0.2-0.1,0.2C-254.7,389.7-254.8,389.8-254.9,389.8z M-258.3,386.4l1.3-4.2h0.1l1.4,4.1L-258.3,386.4z"/>
</svg>
