<?xml version="1.0" encoding="utf-8"?>
<!-- Generator: Adobe Illustrator 19.0.0, SVG Export Plug-In . SVG Version: 6.00 Build 0)  -->
<svg version="1.1" id="Layer_1" xmlns="http://www.w3.org/2000/svg" xmlns:xlink="http://www.w3.org/1999/xlink" x="0px" y="0px"
	 viewBox="-244.1 353.8 77.2 60.5" style="enable-background:new -244.1 353.8 77.2 60.5;" xml:space="preserve">
<g>
	<g>
		<polygon points="-204.2,387 -215.9,400.4 -224,392 -224.1,391.6 -237.5,407.2 -190.8,407.2 		"/>
		<circle cx="-230.4" cy="382" r="4.1"/>
	</g>
</g>
<path d="M-244.1,368v46.3h60.9V368H-244.1z M-187.4,410.8h-52.5v-39.2h52.5V410.8z"/>
<polygon points="-235.9,360.8 -235.9,366.1 -231.6,366.1 -231.6,364.4 -179.2,364.4 -179.2,403.6 -181.1,403.6 -181.1,407.2 
	-174.9,407.2 -174.9,360.8 "/>
<polygon points="-227.8,353.8 -227.8,359.1 -223.6,359.1 -223.6,357.4 -171.1,357.4 -171.1,396.6 -173,396.6 -173,400.2 
	-166.9,400.2 -166.9,353.8 "/>
</svg>
