<?xml version="1.0" encoding="utf-8"?>
<!-- Generator: Adobe Illustrator 19.0.0, SVG Export Plug-In . SVG Version: 6.00 Build 0)  -->
<svg version="1.1" id="Layer_1" xmlns="http://www.w3.org/2000/svg" xmlns:xlink="http://www.w3.org/1999/xlink" x="0px" y="0px"
	 viewBox="-255 334.2 100 99.8" style="enable-background:new -255 334.2 100 99.8;" xml:space="preserve">
<path d="M-155.7,423.2l-31.3-31.3c4.1-6.1,6.2-13.2,6.2-20.6c0-9.9-3.9-19.3-10.9-26.3c-7-7-16.3-10.9-26.3-10.9
	c-9.9,0-19.3,3.9-26.3,10.9c-7,7-10.9,16.3-10.9,26.3c0,9.9,3.9,19.3,10.9,26.3s16.3,10.9,26.3,10.9c7.5,0,14.7-2.2,20.8-6.4
	l31.3,31.3c1.1,1.1,3,0.8,4.3-0.5l5.3-5.3C-154.8,426.2-154.6,424.3-155.7,423.2z M-217.9,398.4c-14.9,0-27.1-12.2-27.1-27.1
	s12.2-27.1,27.1-27.1c14.9,0,27.1,12.2,27.1,27.1C-190.8,386.3-202.9,398.4-217.9,398.4z"/>
</svg>
